<svg xmlns="http://www.w3.org/2000/svg" xmlns:xlink="http://www.w3.org/1999/xlink" width="1500" zoomAndPan="magnify" viewBox="0 0 1125 299.999988" height="400" preserveAspectRatio="xMidYMid meet" version="1.0"><defs><g/></defs><rect x="-112.5" width="1350" fill="#ffffff" y="-29.999999" height="359.999986" fill-opacity="1"/><rect x="-112.5" width="1350" fill="#ffffff" y="-29.999999" height="359.999986" fill-opacity="1"/><rect x="-112.5" width="1350" fill="#b5b5b5" y="-29.999999" height="359.999986" fill-opacity="1"/><g fill="#f3f3f3" fill-opacity="1"><g transform="translate(417.700243, 164.249987)"><g><path d="M 25.484375 -29.6875 L 25.484375 0 L 18.234375 0 L 18.234375 -2.15625 C 16.828125 -0.476562 14.707031 0.359375 11.875 0.359375 C 9.90625 0.359375 8.109375 -0.0976562 6.484375 -1.015625 C 4.859375 -1.941406 3.570312 -3.253906 2.625 -4.953125 C 1.675781 -6.660156 1.203125 -8.632812 1.203125 -10.875 C 1.203125 -13.113281 1.675781 -15.078125 2.625 -16.765625 C 3.570312 -18.460938 4.859375 -19.765625 6.484375 -20.671875 C 8.109375 -21.585938 9.90625 -22.046875 11.875 -22.046875 C 14.46875 -22.046875 16.46875 -21.296875 17.875 -19.796875 L 17.875 -29.6875 Z M 13.484375 -5.6875 C 14.785156 -5.6875 15.863281 -6.144531 16.71875 -7.0625 C 17.570312 -7.976562 18 -9.25 18 -10.875 C 18 -12.476562 17.578125 -13.734375 16.734375 -14.640625 C 15.898438 -15.546875 14.816406 -16 13.484375 -16 C 12.148438 -16 11.054688 -15.546875 10.203125 -14.640625 C 9.347656 -13.734375 8.921875 -12.476562 8.921875 -10.875 C 8.921875 -9.25 9.347656 -7.976562 10.203125 -7.0625 C 11.054688 -6.144531 12.148438 -5.6875 13.484375 -5.6875 Z M 13.484375 -5.6875 "/></g></g></g><g fill="#f3f3f3" fill-opacity="1"><g transform="translate(443.537476, 164.249987)"><g><path d="M 24.59375 -10.796875 C 24.59375 -10.742188 24.554688 -10.117188 24.484375 -8.921875 L 8.71875 -8.921875 C 9.039062 -7.796875 9.660156 -6.929688 10.578125 -6.328125 C 11.492188 -5.734375 12.648438 -5.4375 14.046875 -5.4375 C 15.078125 -5.4375 15.972656 -5.582031 16.734375 -5.875 C 17.492188 -6.164062 18.265625 -6.644531 19.046875 -7.3125 L 23.046875 -3.15625 C 20.929688 -0.8125 17.847656 0.359375 13.796875 0.359375 C 11.265625 0.359375 9.035156 -0.117188 7.109375 -1.078125 C 5.191406 -2.035156 3.707031 -3.367188 2.65625 -5.078125 C 1.601562 -6.785156 1.078125 -8.71875 1.078125 -10.875 C 1.078125 -13.007812 1.585938 -14.921875 2.609375 -16.609375 C 3.640625 -18.304688 5.0625 -19.632812 6.875 -20.59375 C 8.6875 -21.5625 10.726562 -22.046875 13 -22.046875 C 15.15625 -22.046875 17.113281 -21.597656 18.875 -20.703125 C 20.632812 -19.804688 22.023438 -18.507812 23.046875 -16.8125 C 24.078125 -15.125 24.59375 -13.117188 24.59375 -10.796875 Z M 13.046875 -16.640625 C 11.867188 -16.640625 10.882812 -16.304688 10.09375 -15.640625 C 9.3125 -14.972656 8.8125 -14.066406 8.59375 -12.921875 L 17.484375 -12.921875 C 17.265625 -14.066406 16.757812 -14.972656 15.96875 -15.640625 C 15.1875 -16.304688 14.210938 -16.640625 13.046875 -16.640625 Z M 13.046875 -16.640625 "/></g></g></g><g fill="#f3f3f3" fill-opacity="1"><g transform="translate(467.134928, 164.249987)"><g><path d="M 10.71875 -20.875 L 15.875 -20.875 L 15.875 -15.203125 L 10.921875 -15.203125 L 10.921875 0 L 3.3125 0 L 3.3125 -15.203125 L 0.15625 -15.203125 L 0.15625 -20.875 L 3.3125 -20.875 L 3.3125 -21.4375 C 3.3125 -24.082031 4.101562 -26.175781 5.6875 -27.71875 C 7.28125 -29.269531 9.503906 -30.046875 12.359375 -30.046875 C 13.316406 -30.046875 14.25 -29.953125 15.15625 -29.765625 C 16.0625 -29.578125 16.8125 -29.296875 17.40625 -28.921875 L 15.515625 -23.5625 C 14.773438 -23.988281 14.015625 -24.203125 13.234375 -24.203125 C 12.441406 -24.203125 11.820312 -23.960938 11.375 -23.484375 C 10.9375 -23.003906 10.71875 -22.296875 10.71875 -21.359375 Z M 10.71875 -20.875 "/></g></g></g><g fill="#f3f3f3" fill-opacity="1"><g transform="translate(481.293316, 164.249987)"><g><path d="M 11.6875 -22.046875 C 15.28125 -22.046875 18.023438 -21.222656 19.921875 -19.578125 C 21.816406 -17.941406 22.765625 -15.429688 22.765625 -12.046875 L 22.765625 0 L 15.6875 0 L 15.6875 -2.796875 C 14.59375 -0.691406 12.457031 0.359375 9.28125 0.359375 C 7.601562 0.359375 6.148438 0.0664062 4.921875 -0.515625 C 3.691406 -1.109375 2.765625 -1.90625 2.140625 -2.90625 C 1.515625 -3.90625 1.203125 -5.039062 1.203125 -6.3125 C 1.203125 -8.375 1.988281 -9.96875 3.5625 -11.09375 C 5.132812 -12.226562 7.5625 -12.796875 10.84375 -12.796875 L 15.15625 -12.796875 C 15.019531 -15.085938 13.488281 -16.234375 10.5625 -16.234375 C 9.519531 -16.234375 8.460938 -16.066406 7.390625 -15.734375 C 6.328125 -15.398438 5.425781 -14.941406 4.6875 -14.359375 L 2.125 -19.515625 C 3.320312 -20.316406 4.78125 -20.9375 6.5 -21.375 C 8.21875 -21.820312 9.945312 -22.046875 11.6875 -22.046875 Z M 11.40625 -4.4375 C 12.28125 -4.4375 13.050781 -4.648438 13.71875 -5.078125 C 14.382812 -5.503906 14.863281 -6.128906 15.15625 -6.953125 L 15.15625 -8.84375 L 11.875 -8.84375 C 9.664062 -8.84375 8.5625 -8.109375 8.5625 -6.640625 C 8.5625 -5.972656 8.8125 -5.4375 9.3125 -5.03125 C 9.820312 -4.632812 10.519531 -4.4375 11.40625 -4.4375 Z M 11.40625 -4.4375 "/></g></g></g><g fill="#f3f3f3" fill-opacity="1"><g transform="translate(504.330821, 164.249987)"><g><path d="M 25.234375 -21.6875 L 25.234375 0 L 18 0 L 18 -2.3125 C 17.195312 -1.4375 16.234375 -0.769531 15.109375 -0.3125 C 13.992188 0.132812 12.8125 0.359375 11.5625 0.359375 C 8.757812 0.359375 6.523438 -0.460938 4.859375 -2.109375 C 3.191406 -3.765625 2.359375 -6.25 2.359375 -9.5625 L 2.359375 -21.6875 L 9.953125 -21.6875 L 9.953125 -10.796875 C 9.953125 -9.171875 10.257812 -7.984375 10.875 -7.234375 C 11.488281 -6.492188 12.382812 -6.125 13.5625 -6.125 C 14.757812 -6.125 15.738281 -6.539062 16.5 -7.375 C 17.257812 -8.21875 17.640625 -9.503906 17.640625 -11.234375 L 17.640625 -21.6875 Z M 25.234375 -21.6875 "/></g></g></g><g fill="#f3f3f3" fill-opacity="1"><g transform="translate(529.92807, 164.249987)"><g><path d="M 2.4375 -29.6875 L 10.046875 -29.6875 L 10.046875 0 L 2.4375 0 Z M 2.4375 -29.6875 "/></g></g></g><g fill="#f3f3f3" fill-opacity="1"><g transform="translate(540.366832, 164.249987)"><g><path d="M 17.40625 -0.875 C 16.757812 -0.476562 15.976562 -0.175781 15.0625 0.03125 C 14.144531 0.25 13.164062 0.359375 12.125 0.359375 C 9.289062 0.359375 7.113281 -0.332031 5.59375 -1.71875 C 4.070312 -3.101562 3.3125 -5.171875 3.3125 -7.921875 L 3.3125 -15.203125 L 0.15625 -15.203125 L 0.15625 -20.875 L 3.3125 -20.875 L 3.3125 -26.515625 L 10.921875 -26.515625 L 10.921875 -20.875 L 15.875 -20.875 L 15.875 -15.203125 L 10.921875 -15.203125 L 10.921875 -8 C 10.921875 -7.226562 11.125 -6.617188 11.53125 -6.171875 C 11.945312 -5.734375 12.503906 -5.515625 13.203125 -5.515625 C 14.078125 -5.515625 14.847656 -5.742188 15.515625 -6.203125 Z M 17.40625 -0.875 "/></g></g></g><g fill="#f3f3f3" fill-opacity="1"><g transform="translate(556.165056, 164.249987)"><g/></g></g><g fill="#f3f3f3" fill-opacity="1"><g transform="translate(565.723905, 164.249987)"><g><path d="M 16.078125 -22.046875 C 18.054688 -22.046875 19.847656 -21.585938 21.453125 -20.671875 C 23.066406 -19.765625 24.347656 -18.460938 25.296875 -16.765625 C 26.242188 -15.078125 26.71875 -13.113281 26.71875 -10.875 C 26.71875 -8.632812 26.242188 -6.660156 25.296875 -4.953125 C 24.347656 -3.253906 23.066406 -1.941406 21.453125 -1.015625 C 19.847656 -0.0976562 18.054688 0.359375 16.078125 0.359375 C 13.222656 0.359375 11.09375 -0.476562 9.6875 -2.15625 L 9.6875 0 L 2.4375 0 L 2.4375 -29.6875 L 10.046875 -29.6875 L 10.046875 -19.796875 C 11.503906 -21.296875 13.515625 -22.046875 16.078125 -22.046875 Z M 14.484375 -5.6875 C 15.816406 -5.6875 16.910156 -6.144531 17.765625 -7.0625 C 18.617188 -7.976562 19.046875 -9.25 19.046875 -10.875 C 19.046875 -12.476562 18.617188 -13.734375 17.765625 -14.640625 C 16.910156 -15.546875 15.816406 -16 14.484375 -16 C 13.148438 -16 12.054688 -15.546875 11.203125 -14.640625 C 10.347656 -13.734375 9.921875 -12.476562 9.921875 -10.875 C 9.921875 -9.25 10.347656 -7.976562 11.203125 -7.0625 C 12.054688 -6.144531 13.148438 -5.6875 14.484375 -5.6875 Z M 14.484375 -5.6875 "/></g></g></g><g fill="#f3f3f3" fill-opacity="1"><g transform="translate(591.441146, 164.249987)"><g><path d="M 11.6875 -22.046875 C 15.28125 -22.046875 18.023438 -21.222656 19.921875 -19.578125 C 21.816406 -17.941406 22.765625 -15.429688 22.765625 -12.046875 L 22.765625 0 L 15.6875 0 L 15.6875 -2.796875 C 14.59375 -0.691406 12.457031 0.359375 9.28125 0.359375 C 7.601562 0.359375 6.148438 0.0664062 4.921875 -0.515625 C 3.691406 -1.109375 2.765625 -1.90625 2.140625 -2.90625 C 1.515625 -3.90625 1.203125 -5.039062 1.203125 -6.3125 C 1.203125 -8.375 1.988281 -9.96875 3.5625 -11.09375 C 5.132812 -12.226562 7.5625 -12.796875 10.84375 -12.796875 L 15.15625 -12.796875 C 15.019531 -15.085938 13.488281 -16.234375 10.5625 -16.234375 C 9.519531 -16.234375 8.460938 -16.066406 7.390625 -15.734375 C 6.328125 -15.398438 5.425781 -14.941406 4.6875 -14.359375 L 2.125 -19.515625 C 3.320312 -20.316406 4.78125 -20.9375 6.5 -21.375 C 8.21875 -21.820312 9.945312 -22.046875 11.6875 -22.046875 Z M 11.40625 -4.4375 C 12.28125 -4.4375 13.050781 -4.648438 13.71875 -5.078125 C 14.382812 -5.503906 14.863281 -6.128906 15.15625 -6.953125 L 15.15625 -8.84375 L 11.875 -8.84375 C 9.664062 -8.84375 8.5625 -8.109375 8.5625 -6.640625 C 8.5625 -5.972656 8.8125 -5.4375 9.3125 -5.03125 C 9.820312 -4.632812 10.519531 -4.4375 11.40625 -4.4375 Z M 11.40625 -4.4375 "/></g></g></g><g fill="#f3f3f3" fill-opacity="1"><g transform="translate(614.47864, 164.249987)"><g><path d="M 16.5625 -22.046875 C 19.25 -22.046875 21.410156 -21.242188 23.046875 -19.640625 C 24.691406 -18.035156 25.515625 -15.625 25.515625 -12.40625 L 25.515625 0 L 17.921875 0 L 17.921875 -11.15625 C 17.921875 -14.113281 16.734375 -15.59375 14.359375 -15.59375 C 13.054688 -15.59375 12.007812 -15.164062 11.21875 -14.3125 C 10.4375 -13.46875 10.046875 -12.191406 10.046875 -10.484375 L 10.046875 0 L 2.4375 0 L 2.4375 -21.6875 L 9.6875 -21.6875 L 9.6875 -19.3125 C 10.53125 -20.195312 11.539062 -20.875 12.71875 -21.34375 C 13.894531 -21.8125 15.175781 -22.046875 16.5625 -22.046875 Z M 16.5625 -22.046875 "/></g></g></g><g fill="#f3f3f3" fill-opacity="1"><g transform="translate(640.235878, 164.249987)"><g><path d="M 16.5625 -22.046875 C 19.25 -22.046875 21.410156 -21.242188 23.046875 -19.640625 C 24.691406 -18.035156 25.515625 -15.625 25.515625 -12.40625 L 25.515625 0 L 17.921875 0 L 17.921875 -11.15625 C 17.921875 -14.113281 16.734375 -15.59375 14.359375 -15.59375 C 13.054688 -15.59375 12.007812 -15.164062 11.21875 -14.3125 C 10.4375 -13.46875 10.046875 -12.191406 10.046875 -10.484375 L 10.046875 0 L 2.4375 0 L 2.4375 -21.6875 L 9.6875 -21.6875 L 9.6875 -19.3125 C 10.53125 -20.195312 11.539062 -20.875 12.71875 -21.34375 C 13.894531 -21.8125 15.175781 -22.046875 16.5625 -22.046875 Z M 16.5625 -22.046875 "/></g></g></g><g fill="#f3f3f3" fill-opacity="1"><g transform="translate(665.993116, 164.249987)"><g><path d="M 24.59375 -10.796875 C 24.59375 -10.742188 24.554688 -10.117188 24.484375 -8.921875 L 8.71875 -8.921875 C 9.039062 -7.796875 9.660156 -6.929688 10.578125 -6.328125 C 11.492188 -5.734375 12.648438 -5.4375 14.046875 -5.4375 C 15.078125 -5.4375 15.972656 -5.582031 16.734375 -5.875 C 17.492188 -6.164062 18.265625 -6.644531 19.046875 -7.3125 L 23.046875 -3.15625 C 20.929688 -0.8125 17.847656 0.359375 13.796875 0.359375 C 11.265625 0.359375 9.035156 -0.117188 7.109375 -1.078125 C 5.191406 -2.035156 3.707031 -3.367188 2.65625 -5.078125 C 1.601562 -6.785156 1.078125 -8.71875 1.078125 -10.875 C 1.078125 -13.007812 1.585938 -14.921875 2.609375 -16.609375 C 3.640625 -18.304688 5.0625 -19.632812 6.875 -20.59375 C 8.6875 -21.5625 10.726562 -22.046875 13 -22.046875 C 15.15625 -22.046875 17.113281 -21.597656 18.875 -20.703125 C 20.632812 -19.804688 22.023438 -18.507812 23.046875 -16.8125 C 24.078125 -15.125 24.59375 -13.117188 24.59375 -10.796875 Z M 13.046875 -16.640625 C 11.867188 -16.640625 10.882812 -16.304688 10.09375 -15.640625 C 9.3125 -14.972656 8.8125 -14.066406 8.59375 -12.921875 L 17.484375 -12.921875 C 17.265625 -14.066406 16.757812 -14.972656 15.96875 -15.640625 C 15.1875 -16.304688 14.210938 -16.640625 13.046875 -16.640625 Z M 13.046875 -16.640625 "/></g></g></g><g fill="#f3f3f3" fill-opacity="1"><g transform="translate(689.590557, 164.249987)"><g><path d="M 9.6875 -19.078125 C 10.457031 -20.066406 11.460938 -20.804688 12.703125 -21.296875 C 13.941406 -21.796875 15.359375 -22.046875 16.953125 -22.046875 L 16.953125 -15.203125 C 16.265625 -15.273438 15.691406 -15.3125 15.234375 -15.3125 C 13.609375 -15.3125 12.335938 -14.875 11.421875 -14 C 10.503906 -13.125 10.046875 -11.773438 10.046875 -9.953125 L 10.046875 0 L 2.4375 0 L 2.4375 -21.6875 L 9.6875 -21.6875 Z M 9.6875 -19.078125 "/></g></g></g></svg>