<svg xmlns="http://www.w3.org/2000/svg" xmlns:xlink="http://www.w3.org/1999/xlink" width="500" zoomAndPan="magnify" viewBox="0 0 375 374.999991" height="500" preserveAspectRatio="xMidYMid meet" version="1.0"><defs><g/></defs><g fill="#ffffff" fill-opacity="1"><g transform="translate(18.649169, 235.533753)"><g><path d="M 42.109375 1.859375 C 34.554688 1.859375 27.226562 0.925781 20.125 -0.9375 C 13.019531 -2.800781 7.242188 -5.285156 2.796875 -8.390625 L 11.46875 -27.859375 C 15.632812 -25.097656 20.472656 -22.875 25.984375 -21.1875 C 31.492188 -19.5 36.914062 -18.65625 42.25 -18.65625 C 52.375 -18.65625 57.4375 -21.1875 57.4375 -26.25 C 57.4375 -28.914062 55.992188 -30.894531 53.109375 -32.1875 C 50.222656 -33.476562 45.582031 -34.832031 39.1875 -36.25 C 32.164062 -37.757812 26.300781 -39.378906 21.59375 -41.109375 C 16.882812 -42.847656 12.835938 -45.625 9.453125 -49.4375 C 6.078125 -53.257812 4.390625 -58.414062 4.390625 -64.90625 C 4.390625 -70.59375 5.945312 -75.722656 9.0625 -80.296875 C 12.175781 -84.878906 16.816406 -88.5 22.984375 -91.15625 C 29.160156 -93.820312 36.738281 -95.15625 45.71875 -95.15625 C 51.84375 -95.15625 57.878906 -94.46875 63.828125 -93.09375 C 69.785156 -91.71875 75.03125 -89.695312 79.5625 -87.03125 L 71.4375 -67.4375 C 62.550781 -72.238281 53.929688 -74.640625 45.578125 -74.640625 C 40.335938 -74.640625 36.515625 -73.859375 34.109375 -72.296875 C 31.710938 -70.742188 30.515625 -68.722656 30.515625 -66.234375 C 30.515625 -63.753906 31.9375 -61.890625 34.78125 -60.640625 C 37.625 -59.398438 42.203125 -58.113281 48.515625 -56.78125 C 55.617188 -55.269531 61.503906 -53.644531 66.171875 -51.90625 C 70.835938 -50.175781 74.878906 -47.421875 78.296875 -43.640625 C 81.722656 -39.867188 83.4375 -34.738281 83.4375 -28.25 C 83.4375 -22.65625 81.878906 -17.59375 78.765625 -13.0625 C 75.660156 -8.53125 70.992188 -4.910156 64.765625 -2.203125 C 58.546875 0.503906 50.992188 1.859375 42.109375 1.859375 Z M 42.109375 1.859375 "/></g></g></g><g fill="#ffffff" fill-opacity="1"><g transform="translate(88.210624, 235.533753)"><g><path d="M 44.375 1.203125 C 36.644531 1.203125 29.671875 -0.394531 23.453125 -3.59375 C 17.234375 -6.789062 12.367188 -11.234375 8.859375 -16.921875 C 5.347656 -22.609375 3.59375 -29.050781 3.59375 -36.25 C 3.59375 -43.363281 5.347656 -49.757812 8.859375 -55.4375 C 12.367188 -61.125 17.210938 -65.546875 23.390625 -68.703125 C 29.566406 -71.859375 36.5625 -73.4375 44.375 -73.4375 C 52.195312 -73.4375 59.21875 -71.859375 65.4375 -68.703125 C 71.65625 -65.546875 76.5 -61.144531 79.96875 -55.5 C 83.4375 -49.863281 85.171875 -43.445312 85.171875 -36.25 C 85.171875 -29.050781 83.4375 -22.609375 79.96875 -16.921875 C 76.5 -11.234375 71.65625 -6.789062 65.4375 -3.59375 C 59.21875 -0.394531 52.195312 1.203125 44.375 1.203125 Z M 44.375 -18.921875 C 48.820312 -18.921875 52.46875 -20.453125 55.3125 -23.515625 C 58.15625 -26.585938 59.578125 -30.832031 59.578125 -36.25 C 59.578125 -41.582031 58.15625 -45.757812 55.3125 -48.78125 C 52.46875 -51.800781 48.820312 -53.3125 44.375 -53.3125 C 39.9375 -53.3125 36.296875 -51.800781 33.453125 -48.78125 C 30.609375 -45.757812 29.1875 -41.582031 29.1875 -36.25 C 29.1875 -30.832031 30.609375 -26.585938 33.453125 -23.515625 C 36.296875 -20.453125 39.9375 -18.921875 44.375 -18.921875 Z M 44.375 -18.921875 "/></g></g></g><g fill="#ffffff" fill-opacity="1"><g transform="translate(160.304105, 235.533753)"><g><path d="M 93.5625 0 L 93.296875 -49.453125 L 69.3125 -9.203125 L 57.578125 -9.203125 L 33.71875 -48.109375 L 33.71875 0 L 9.328125 0 L 9.328125 -93.296875 L 31.046875 -93.296875 L 63.84375 -39.453125 L 95.828125 -93.296875 L 117.546875 -93.296875 L 117.828125 0 Z M 93.5625 0 "/></g></g></g><g fill="#ffffff" fill-opacity="1"><g transform="translate(270.777896, 235.533753)"><g><path d="M 81.96875 -35.984375 C 81.96875 -35.804688 81.832031 -33.71875 81.5625 -29.71875 L 29.0625 -29.71875 C 30.125 -25.988281 32.1875 -23.125 35.25 -21.125 C 38.3125 -19.125 42.15625 -18.125 46.78125 -18.125 C 50.25 -18.125 53.25 -18.613281 55.78125 -19.59375 C 58.3125 -20.570312 60.863281 -22.171875 63.4375 -24.390625 L 76.765625 -10.53125 C 69.742188 -2.707031 59.484375 1.203125 45.984375 1.203125 C 37.535156 1.203125 30.113281 -0.394531 23.71875 -3.59375 C 17.320312 -6.789062 12.367188 -11.234375 8.859375 -16.921875 C 5.347656 -22.609375 3.59375 -29.050781 3.59375 -36.25 C 3.59375 -43.363281 5.300781 -49.738281 8.71875 -55.375 C 12.144531 -61.019531 16.878906 -65.441406 22.921875 -68.640625 C 28.960938 -71.835938 35.757812 -73.4375 43.3125 -73.4375 C 50.507812 -73.4375 57.039062 -71.945312 62.90625 -68.96875 C 68.769531 -66 73.410156 -61.691406 76.828125 -56.046875 C 80.253906 -50.398438 81.96875 -43.710938 81.96875 -35.984375 Z M 43.453125 -55.4375 C 39.535156 -55.4375 36.265625 -54.328125 33.640625 -52.109375 C 31.023438 -49.890625 29.363281 -46.867188 28.65625 -43.046875 L 58.25 -43.046875 C 57.53125 -46.867188 55.859375 -49.890625 53.234375 -52.109375 C 50.617188 -54.328125 47.359375 -55.4375 43.453125 -55.4375 Z M 43.453125 -55.4375 "/></g></g></g></svg>