<svg xmlns="http://www.w3.org/2000/svg" xmlns:xlink="http://www.w3.org/1999/xlink" width="1600" zoomAndPan="magnify" viewBox="0 0 1200 374.999991" height="500" preserveAspectRatio="xMidYMid meet" version="1.0"><defs><g/></defs><rect x="-120" width="1440" fill="#ffffff" y="-37.499999" height="449.999989" fill-opacity="1"/><rect x="-120" width="1440" fill="#ffffff" y="-37.499999" height="449.999989" fill-opacity="1"/><rect x="-120" width="1440" fill="#000000" y="-37.499999" height="449.999989" fill-opacity="1"/><g fill="#ffffff" fill-opacity="1"><g transform="translate(501.551292, 214.874986)"><g><path d="M 24 1.0625 C 19.695312 1.0625 15.519531 0.53125 11.46875 -0.53125 C 7.414062 -1.59375 4.125 -3.007812 1.59375 -4.78125 L 6.53125 -15.875 C 8.914062 -14.300781 11.675781 -13.035156 14.8125 -12.078125 C 17.945312 -11.117188 21.035156 -10.640625 24.078125 -10.640625 C 29.847656 -10.640625 32.734375 -12.082031 32.734375 -14.96875 C 32.734375 -16.476562 31.910156 -17.597656 30.265625 -18.328125 C 28.617188 -19.066406 25.972656 -19.84375 22.328125 -20.65625 C 18.328125 -21.519531 14.984375 -22.441406 12.296875 -23.421875 C 9.617188 -24.410156 7.316406 -25.992188 5.390625 -28.171875 C 3.460938 -30.347656 2.5 -33.285156 2.5 -36.984375 C 2.5 -40.222656 3.382812 -43.144531 5.15625 -45.75 C 6.9375 -48.363281 9.582031 -50.429688 13.09375 -51.953125 C 16.613281 -53.472656 20.929688 -54.234375 26.046875 -54.234375 C 29.546875 -54.234375 32.988281 -53.835938 36.375 -53.046875 C 39.769531 -52.265625 42.757812 -51.113281 45.34375 -49.59375 L 40.703125 -38.4375 C 35.640625 -41.164062 30.726562 -42.53125 25.96875 -42.53125 C 22.988281 -42.53125 20.8125 -42.085938 19.4375 -41.203125 C 18.070312 -40.316406 17.390625 -39.164062 17.390625 -37.75 C 17.390625 -36.332031 18.195312 -35.269531 19.8125 -34.5625 C 21.4375 -33.851562 24.046875 -33.117188 27.640625 -32.359375 C 31.691406 -31.492188 35.046875 -30.566406 37.703125 -29.578125 C 40.367188 -28.597656 42.675781 -27.03125 44.625 -24.875 C 46.570312 -22.71875 47.546875 -19.796875 47.546875 -16.109375 C 47.546875 -12.910156 46.660156 -10.019531 44.890625 -7.4375 C 43.117188 -4.851562 40.457031 -2.789062 36.90625 -1.25 C 33.363281 0.289062 29.0625 1.0625 24 1.0625 Z M 24 1.0625 "/></g></g></g><g fill="#ffffff" fill-opacity="1"><g transform="translate(541.195177, 214.874986)"><g><path d="M 25.296875 0.6875 C 20.890625 0.6875 16.910156 -0.222656 13.359375 -2.046875 C 9.816406 -3.867188 7.046875 -6.398438 5.046875 -9.640625 C 3.046875 -12.878906 2.046875 -16.550781 2.046875 -20.65625 C 2.046875 -24.707031 3.046875 -28.351562 5.046875 -31.59375 C 7.046875 -34.832031 9.804688 -37.347656 13.328125 -39.140625 C 16.847656 -40.941406 20.835938 -41.84375 25.296875 -41.84375 C 29.742188 -41.84375 33.738281 -40.941406 37.28125 -39.140625 C 40.832031 -37.347656 43.59375 -34.84375 45.5625 -31.625 C 47.539062 -28.414062 48.53125 -24.757812 48.53125 -20.65625 C 48.53125 -16.550781 47.539062 -12.878906 45.5625 -9.640625 C 43.59375 -6.398438 40.832031 -3.867188 37.28125 -2.046875 C 33.738281 -0.222656 29.742188 0.6875 25.296875 0.6875 Z M 25.296875 -10.78125 C 27.828125 -10.78125 29.898438 -11.65625 31.515625 -13.40625 C 33.140625 -15.15625 33.953125 -17.570312 33.953125 -20.65625 C 33.953125 -23.695312 33.140625 -26.078125 31.515625 -27.796875 C 29.898438 -29.515625 27.828125 -30.375 25.296875 -30.375 C 22.765625 -30.375 20.6875 -29.515625 19.0625 -27.796875 C 17.445312 -26.078125 16.640625 -23.695312 16.640625 -20.65625 C 16.640625 -17.570312 17.445312 -15.15625 19.0625 -13.40625 C 20.6875 -11.65625 22.765625 -10.78125 25.296875 -10.78125 Z M 25.296875 -10.78125 "/></g></g></g><g fill="#ffffff" fill-opacity="1"><g transform="translate(582.282093, 214.874986)"><g><path d="M 53.3125 0 L 53.171875 -28.171875 L 39.5 -5.234375 L 32.8125 -5.234375 L 19.21875 -27.421875 L 19.21875 0 L 5.3125 0 L 5.3125 -53.171875 L 17.703125 -53.171875 L 36.375 -22.484375 L 54.609375 -53.171875 L 66.984375 -53.171875 L 67.140625 0 Z M 53.3125 0 "/></g></g></g><g fill="#ffffff" fill-opacity="1"><g transform="translate(645.242395, 214.874986)"><g><path d="M 46.71875 -20.5 C 46.71875 -20.40625 46.640625 -19.21875 46.484375 -16.9375 L 16.5625 -16.9375 C 17.164062 -14.8125 18.335938 -13.175781 20.078125 -12.03125 C 21.828125 -10.894531 24.019531 -10.328125 26.65625 -10.328125 C 28.632812 -10.328125 30.34375 -10.601562 31.78125 -11.15625 C 33.226562 -11.71875 34.6875 -12.632812 36.15625 -13.90625 L 43.75 -6 C 39.75 -1.539062 33.898438 0.6875 26.203125 0.6875 C 21.390625 0.6875 17.160156 -0.222656 13.515625 -2.046875 C 9.867188 -3.867188 7.046875 -6.398438 5.046875 -9.640625 C 3.046875 -12.878906 2.046875 -16.550781 2.046875 -20.65625 C 2.046875 -24.707031 3.019531 -28.335938 4.96875 -31.546875 C 6.925781 -34.765625 9.625 -37.285156 13.0625 -39.109375 C 16.507812 -40.929688 20.382812 -41.84375 24.6875 -41.84375 C 28.789062 -41.84375 32.507812 -40.992188 35.84375 -39.296875 C 39.1875 -37.609375 41.832031 -35.15625 43.78125 -31.9375 C 45.738281 -28.71875 46.71875 -24.90625 46.71875 -20.5 Z M 24.765625 -31.59375 C 22.535156 -31.59375 20.671875 -30.957031 19.171875 -29.6875 C 17.679688 -28.425781 16.734375 -26.707031 16.328125 -24.53125 L 33.1875 -24.53125 C 32.78125 -26.707031 31.832031 -28.425781 30.34375 -29.6875 C 28.851562 -30.957031 26.992188 -31.59375 24.765625 -31.59375 Z M 24.765625 -31.59375 "/></g></g></g><g fill="#ffffff" fill-opacity="1"><g transform="translate(426.61897, 193.874987)"><g><path d="M 6.90625 -2.34375 C 6.90625 -1.539062 6.609375 -0.921875 6.015625 -0.484375 C 5.421875 -0.0546875 4.585938 0.15625 3.515625 0.15625 C 2.378906 0.15625 1.492188 -0.0234375 0.859375 -0.390625 L 0.859375 -1.59375 C 1.265625 -1.382812 1.703125 -1.21875 2.171875 -1.09375 C 2.648438 -0.976562 3.109375 -0.921875 3.546875 -0.921875 C 4.222656 -0.921875 4.742188 -1.023438 5.109375 -1.234375 C 5.472656 -1.453125 5.65625 -1.785156 5.65625 -2.234375 C 5.65625 -2.566406 5.507812 -2.847656 5.21875 -3.078125 C 4.925781 -3.316406 4.363281 -3.597656 3.53125 -3.921875 C 2.726562 -4.222656 2.160156 -4.484375 1.828125 -4.703125 C 1.492188 -4.921875 1.242188 -5.171875 1.078125 -5.453125 C 0.910156 -5.734375 0.828125 -6.070312 0.828125 -6.46875 C 0.828125 -7.164062 1.109375 -7.710938 1.671875 -8.109375 C 2.242188 -8.515625 3.023438 -8.71875 4.015625 -8.71875 C 4.941406 -8.71875 5.84375 -8.53125 6.71875 -8.15625 L 6.265625 -7.109375 C 5.398438 -7.460938 4.617188 -7.640625 3.921875 -7.640625 C 3.304688 -7.640625 2.84375 -7.539062 2.53125 -7.34375 C 2.21875 -7.15625 2.0625 -6.890625 2.0625 -6.546875 C 2.0625 -6.316406 2.117188 -6.117188 2.234375 -5.953125 C 2.359375 -5.796875 2.550781 -5.644531 2.8125 -5.5 C 3.070312 -5.351562 3.570312 -5.144531 4.3125 -4.875 C 5.320312 -4.5 6.003906 -4.125 6.359375 -3.75 C 6.722656 -3.375 6.90625 -2.90625 6.90625 -2.34375 Z M 6.90625 -2.34375 "/></g></g></g><g fill="#ffffff" fill-opacity="1"><g transform="translate(434.249925, 193.874987)"><g><path d="M 8.765625 -4.296875 C 8.765625 -2.898438 8.410156 -1.804688 7.703125 -1.015625 C 7.003906 -0.234375 6.035156 0.15625 4.796875 0.15625 C 4.035156 0.15625 3.359375 -0.0195312 2.765625 -0.375 C 2.171875 -0.738281 1.710938 -1.253906 1.390625 -1.921875 C 1.066406 -2.597656 0.90625 -3.390625 0.90625 -4.296875 C 0.90625 -5.691406 1.253906 -6.773438 1.953125 -7.546875 C 2.648438 -8.328125 3.617188 -8.71875 4.859375 -8.71875 C 6.054688 -8.71875 7.003906 -8.316406 7.703125 -7.515625 C 8.410156 -6.722656 8.765625 -5.648438 8.765625 -4.296875 Z M 2.25 -4.296875 C 2.25 -3.203125 2.46875 -2.367188 2.90625 -1.796875 C 3.34375 -1.222656 3.984375 -0.9375 4.828125 -0.9375 C 5.679688 -0.9375 6.328125 -1.21875 6.765625 -1.78125 C 7.203125 -2.351562 7.421875 -3.191406 7.421875 -4.296875 C 7.421875 -5.378906 7.203125 -6.203125 6.765625 -6.765625 C 6.328125 -7.335938 5.675781 -7.625 4.8125 -7.625 C 3.96875 -7.625 3.328125 -7.34375 2.890625 -6.78125 C 2.460938 -6.226562 2.25 -5.398438 2.25 -4.296875 Z M 2.25 -4.296875 "/></g></g></g><g fill="#ffffff" fill-opacity="1"><g transform="translate(443.911633, 193.874987)"><g><path d="M 4.796875 0.15625 C 3.554688 0.15625 2.597656 -0.222656 1.921875 -0.984375 C 1.242188 -1.753906 0.90625 -2.835938 0.90625 -4.234375 C 0.90625 -5.660156 1.25 -6.765625 1.9375 -7.546875 C 2.625 -8.328125 3.609375 -8.71875 4.890625 -8.71875 C 5.296875 -8.71875 5.703125 -8.671875 6.109375 -8.578125 C 6.523438 -8.492188 6.851562 -8.394531 7.09375 -8.28125 L 6.6875 -7.171875 C 6.40625 -7.285156 6.09375 -7.378906 5.75 -7.453125 C 5.414062 -7.535156 5.117188 -7.578125 4.859375 -7.578125 C 3.117188 -7.578125 2.25 -6.46875 2.25 -4.25 C 2.25 -3.195312 2.457031 -2.390625 2.875 -1.828125 C 3.300781 -1.265625 3.929688 -0.984375 4.765625 -0.984375 C 5.484375 -0.984375 6.21875 -1.132812 6.96875 -1.4375 L 6.96875 -0.296875 C 6.394531 0.00390625 5.671875 0.15625 4.796875 0.15625 Z M 4.796875 0.15625 "/></g></g></g><g fill="#ffffff" fill-opacity="1"><g transform="translate(451.526966, 193.874987)"><g><path d="M 2.671875 0 L 1.375 0 L 1.375 -8.5625 L 2.671875 -8.5625 Z M 1.265625 -10.890625 C 1.265625 -11.179688 1.335938 -11.394531 1.484375 -11.53125 C 1.628906 -11.675781 1.8125 -11.75 2.03125 -11.75 C 2.238281 -11.75 2.414062 -11.675781 2.5625 -11.53125 C 2.71875 -11.394531 2.796875 -11.179688 2.796875 -10.890625 C 2.796875 -10.597656 2.71875 -10.378906 2.5625 -10.234375 C 2.414062 -10.085938 2.238281 -10.015625 2.03125 -10.015625 C 1.8125 -10.015625 1.628906 -10.085938 1.484375 -10.234375 C 1.335938 -10.378906 1.265625 -10.597656 1.265625 -10.890625 Z M 1.265625 -10.890625 "/></g></g></g><g fill="#ffffff" fill-opacity="1"><g transform="translate(455.572853, 193.874987)"><g><path d="M 6.640625 0 L 6.390625 -1.21875 L 6.328125 -1.21875 C 5.898438 -0.6875 5.472656 -0.320312 5.046875 -0.125 C 4.617188 0.0625 4.085938 0.15625 3.453125 0.15625 C 2.609375 0.15625 1.941406 -0.0625 1.453125 -0.5 C 0.972656 -0.9375 0.734375 -1.5625 0.734375 -2.375 C 0.734375 -4.101562 2.117188 -5.007812 4.890625 -5.09375 L 6.34375 -5.140625 L 6.34375 -5.671875 C 6.34375 -6.335938 6.195312 -6.832031 5.90625 -7.15625 C 5.613281 -7.476562 5.148438 -7.640625 4.515625 -7.640625 C 3.804688 -7.640625 3 -7.421875 2.09375 -6.984375 L 1.703125 -7.96875 C 2.117188 -8.195312 2.578125 -8.375 3.078125 -8.5 C 3.585938 -8.632812 4.09375 -8.703125 4.59375 -8.703125 C 5.613281 -8.703125 6.367188 -8.472656 6.859375 -8.015625 C 7.359375 -7.566406 7.609375 -6.84375 7.609375 -5.84375 L 7.609375 0 Z M 3.71875 -0.921875 C 4.519531 -0.921875 5.148438 -1.140625 5.609375 -1.578125 C 6.078125 -2.023438 6.3125 -2.644531 6.3125 -3.4375 L 6.3125 -4.21875 L 5.015625 -4.15625 C 3.984375 -4.125 3.238281 -3.960938 2.78125 -3.671875 C 2.320312 -3.390625 2.09375 -2.953125 2.09375 -2.359375 C 2.09375 -1.890625 2.234375 -1.53125 2.515625 -1.28125 C 2.804688 -1.039062 3.207031 -0.921875 3.71875 -0.921875 Z M 3.71875 -0.921875 "/></g></g></g><g fill="#ffffff" fill-opacity="1"><g transform="translate(464.469123, 193.874987)"><g><path d="M 2.671875 0 L 1.375 0 L 1.375 -12.15625 L 2.671875 -12.15625 Z M 2.671875 0 "/></g></g></g><g fill="#ffffff" fill-opacity="1"><g transform="translate(726.775503, 193.874987)"><g><path d="M 12.296875 0 L 12.296875 -5.578125 C 12.296875 -6.253906 12.148438 -6.765625 11.859375 -7.109375 C 11.566406 -7.453125 11.113281 -7.625 10.5 -7.625 C 9.6875 -7.625 9.085938 -7.390625 8.703125 -6.921875 C 8.316406 -6.460938 8.125 -5.75 8.125 -4.78125 L 8.125 0 L 6.828125 0 L 6.828125 -5.578125 C 6.828125 -6.253906 6.679688 -6.765625 6.390625 -7.109375 C 6.097656 -7.453125 5.644531 -7.625 5.03125 -7.625 C 4.21875 -7.625 3.617188 -7.378906 3.234375 -6.890625 C 2.859375 -6.398438 2.671875 -5.601562 2.671875 -4.5 L 2.671875 0 L 1.375 0 L 1.375 -8.5625 L 2.4375 -8.5625 L 2.640625 -7.390625 L 2.703125 -7.390625 C 2.953125 -7.804688 3.296875 -8.128906 3.734375 -8.359375 C 4.179688 -8.597656 4.679688 -8.71875 5.234375 -8.71875 C 6.578125 -8.71875 7.453125 -8.234375 7.859375 -7.265625 L 7.921875 -7.265625 C 8.179688 -7.710938 8.550781 -8.066406 9.03125 -8.328125 C 9.519531 -8.585938 10.070312 -8.71875 10.6875 -8.71875 C 11.65625 -8.71875 12.378906 -8.46875 12.859375 -7.96875 C 13.347656 -7.476562 13.59375 -6.6875 13.59375 -5.59375 L 13.59375 0 Z M 12.296875 0 "/></g></g></g><g fill="#ffffff" fill-opacity="1"><g transform="translate(741.654686, 193.874987)"><g><path d="M 5 0.15625 C 3.726562 0.15625 2.726562 -0.226562 2 -1 C 1.269531 -1.769531 0.90625 -2.84375 0.90625 -4.21875 C 0.90625 -5.59375 1.242188 -6.6875 1.921875 -7.5 C 2.597656 -8.3125 3.507812 -8.71875 4.65625 -8.71875 C 5.726562 -8.71875 6.578125 -8.363281 7.203125 -7.65625 C 7.828125 -6.957031 8.140625 -6.03125 8.140625 -4.875 L 8.140625 -4.046875 L 2.25 -4.046875 C 2.269531 -3.046875 2.519531 -2.285156 3 -1.765625 C 3.488281 -1.242188 4.171875 -0.984375 5.046875 -0.984375 C 5.960938 -0.984375 6.875 -1.175781 7.78125 -1.5625 L 7.78125 -0.40625 C 7.320312 -0.207031 6.882812 -0.0664062 6.46875 0.015625 C 6.0625 0.109375 5.570312 0.15625 5 0.15625 Z M 4.640625 -7.640625 C 3.953125 -7.640625 3.40625 -7.414062 3 -6.96875 C 2.59375 -6.519531 2.351562 -5.898438 2.28125 -5.109375 L 6.75 -5.109375 C 6.75 -5.921875 6.566406 -6.546875 6.203125 -6.984375 C 5.835938 -7.421875 5.316406 -7.640625 4.640625 -7.640625 Z M 4.640625 -7.640625 "/></g></g></g><g fill="#ffffff" fill-opacity="1"><g transform="translate(750.629063, 193.874987)"><g><path d="M 7.203125 -1.15625 L 7.140625 -1.15625 C 6.535156 -0.28125 5.640625 0.15625 4.453125 0.15625 C 3.328125 0.15625 2.453125 -0.222656 1.828125 -0.984375 C 1.210938 -1.753906 0.90625 -2.847656 0.90625 -4.265625 C 0.90625 -5.671875 1.21875 -6.765625 1.84375 -7.546875 C 2.46875 -8.328125 3.335938 -8.71875 4.453125 -8.71875 C 5.609375 -8.71875 6.5 -8.296875 7.125 -7.453125 L 7.21875 -7.453125 L 7.171875 -8.078125 L 7.140625 -8.671875 L 7.140625 -12.15625 L 8.4375 -12.15625 L 8.4375 0 L 7.375 0 Z M 4.609375 -0.9375 C 5.492188 -0.9375 6.132812 -1.175781 6.53125 -1.65625 C 6.9375 -2.132812 7.140625 -2.910156 7.140625 -3.984375 L 7.140625 -4.265625 C 7.140625 -5.472656 6.9375 -6.335938 6.53125 -6.859375 C 6.125 -7.378906 5.476562 -7.640625 4.59375 -7.640625 C 3.832031 -7.640625 3.25 -7.34375 2.84375 -6.75 C 2.445312 -6.15625 2.25 -5.320312 2.25 -4.25 C 2.25 -3.15625 2.445312 -2.328125 2.84375 -1.765625 C 3.25 -1.210938 3.835938 -0.9375 4.609375 -0.9375 Z M 4.609375 -0.9375 "/></g></g></g><g fill="#ffffff" fill-opacity="1"><g transform="translate(760.431361, 193.874987)"><g><path d="M 2.671875 0 L 1.375 0 L 1.375 -8.5625 L 2.671875 -8.5625 Z M 1.265625 -10.890625 C 1.265625 -11.179688 1.335938 -11.394531 1.484375 -11.53125 C 1.628906 -11.675781 1.8125 -11.75 2.03125 -11.75 C 2.238281 -11.75 2.414062 -11.675781 2.5625 -11.53125 C 2.71875 -11.394531 2.796875 -11.179688 2.796875 -10.890625 C 2.796875 -10.597656 2.71875 -10.378906 2.5625 -10.234375 C 2.414062 -10.085938 2.238281 -10.015625 2.03125 -10.015625 C 1.8125 -10.015625 1.628906 -10.085938 1.484375 -10.234375 C 1.335938 -10.378906 1.265625 -10.597656 1.265625 -10.890625 Z M 1.265625 -10.890625 "/></g></g></g><g fill="#ffffff" fill-opacity="1"><g transform="translate(764.477248, 193.874987)"><g><path d="M 6.640625 0 L 6.390625 -1.21875 L 6.328125 -1.21875 C 5.898438 -0.6875 5.472656 -0.320312 5.046875 -0.125 C 4.617188 0.0625 4.085938 0.15625 3.453125 0.15625 C 2.609375 0.15625 1.941406 -0.0625 1.453125 -0.5 C 0.972656 -0.9375 0.734375 -1.5625 0.734375 -2.375 C 0.734375 -4.101562 2.117188 -5.007812 4.890625 -5.09375 L 6.34375 -5.140625 L 6.34375 -5.671875 C 6.34375 -6.335938 6.195312 -6.832031 5.90625 -7.15625 C 5.613281 -7.476562 5.148438 -7.640625 4.515625 -7.640625 C 3.804688 -7.640625 3 -7.421875 2.09375 -6.984375 L 1.703125 -7.96875 C 2.117188 -8.195312 2.578125 -8.375 3.078125 -8.5 C 3.585938 -8.632812 4.09375 -8.703125 4.59375 -8.703125 C 5.613281 -8.703125 6.367188 -8.472656 6.859375 -8.015625 C 7.359375 -7.566406 7.609375 -6.84375 7.609375 -5.84375 L 7.609375 0 Z M 3.71875 -0.921875 C 4.519531 -0.921875 5.148438 -1.140625 5.609375 -1.578125 C 6.078125 -2.023438 6.3125 -2.644531 6.3125 -3.4375 L 6.3125 -4.21875 L 5.015625 -4.15625 C 3.984375 -4.125 3.238281 -3.960938 2.78125 -3.671875 C 2.320312 -3.390625 2.09375 -2.953125 2.09375 -2.359375 C 2.09375 -1.890625 2.234375 -1.53125 2.515625 -1.28125 C 2.804688 -1.039062 3.207031 -0.921875 3.71875 -0.921875 Z M 3.71875 -0.921875 "/></g></g></g></svg>