<svg xmlns="http://www.w3.org/2000/svg" xmlns:xlink="http://www.w3.org/1999/xlink" width="2000" zoomAndPan="magnify" viewBox="0 0 1500 525.000007" height="700" preserveAspectRatio="xMidYMid meet" version="1.0"><defs><g/><clipPath id="c5a69693bf"><path d="M 1.425781 0 L 1498.574219 0 L 1498.574219 524 L 1.425781 524 Z M 1.425781 0 " clip-rule="nonzero"/></clipPath><clipPath id="f17c793862"><path d="M 1014 195 L 1029.570312 195 L 1029.570312 203.832031 L 1014 203.832031 Z M 1014 195 " clip-rule="nonzero"/></clipPath><clipPath id="1838c39747"><path d="M 958.558594 164.90625 L 1084.835938 164.90625 L 1084.835938 195.96875 L 958.558594 195.96875 Z M 958.558594 164.90625 " clip-rule="nonzero"/></clipPath></defs><g clip-path="url(#c5a69693bf)"><path fill="#ffffff" d="M 1.425781 0 L 1498.574219 0 L 1498.574219 531.488281 L 1.425781 531.488281 Z M 1.425781 0 " fill-opacity="1" fill-rule="nonzero"/><path fill="#ffffff" d="M 1.425781 0 L 1498.574219 0 L 1498.574219 524 L 1.425781 524 Z M 1.425781 0 " fill-opacity="1" fill-rule="nonzero"/><path fill="#14213d" d="M 1.425781 0 L 1498.574219 0 L 1498.574219 524 L 1.425781 524 Z M 1.425781 0 " fill-opacity="1" fill-rule="nonzero"/></g><g fill="#f3f3f3" fill-opacity="1"><g transform="translate(487.902609, 308.038272)"><g><path d="M 40.90625 1.8125 C 33.570312 1.8125 26.453125 0.90625 19.546875 -0.90625 C 12.640625 -2.71875 7.03125 -5.132812 2.71875 -8.15625 L 11.140625 -27.0625 C 15.191406 -24.382812 19.890625 -22.222656 25.234375 -20.578125 C 30.585938 -18.941406 35.851562 -18.125 41.03125 -18.125 C 50.875 -18.125 55.796875 -20.582031 55.796875 -25.5 C 55.796875 -28.09375 54.390625 -30.015625 51.578125 -31.265625 C 48.773438 -32.515625 44.269531 -33.832031 38.0625 -35.21875 C 31.238281 -36.675781 25.539062 -38.242188 20.96875 -39.921875 C 16.394531 -41.609375 12.46875 -44.304688 9.1875 -48.015625 C 5.90625 -51.734375 4.265625 -56.742188 4.265625 -63.046875 C 4.265625 -68.566406 5.773438 -73.546875 8.796875 -77.984375 C 11.816406 -82.429688 16.328125 -85.945312 22.328125 -88.53125 C 28.328125 -91.125 35.6875 -92.421875 44.40625 -92.421875 C 50.351562 -92.421875 56.21875 -91.753906 62 -90.421875 C 67.789062 -89.085938 72.882812 -87.125 77.28125 -84.53125 L 69.390625 -65.5 C 60.753906 -70.164062 52.378906 -72.5 44.265625 -72.5 C 39.179688 -72.5 35.472656 -71.742188 33.140625 -70.234375 C 30.804688 -68.722656 29.640625 -66.757812 29.640625 -64.34375 C 29.640625 -61.925781 31.019531 -60.113281 33.78125 -58.90625 C 36.550781 -57.695312 41 -56.441406 47.125 -55.140625 C 54.03125 -53.679688 59.742188 -52.109375 64.265625 -50.421875 C 68.796875 -48.734375 72.722656 -46.054688 76.046875 -42.390625 C 79.367188 -38.722656 81.03125 -33.738281 81.03125 -27.4375 C 81.03125 -22 79.519531 -17.078125 76.5 -12.671875 C 73.476562 -8.273438 68.945312 -4.757812 62.90625 -2.125 C 56.875 0.5 49.539062 1.8125 40.90625 1.8125 Z M 40.90625 1.8125 "/></g></g></g><g fill="#f3f3f3" fill-opacity="1"><g transform="translate(611.795132, 308.038272)"><g><path d="M 54.765625 1.8125 C 45.179688 1.8125 36.566406 -0.210938 28.921875 -4.265625 C 21.285156 -8.328125 15.289062 -13.9375 10.9375 -21.09375 C 6.582031 -28.257812 4.40625 -36.332031 4.40625 -45.3125 C 4.40625 -54.28125 6.582031 -62.347656 10.9375 -69.515625 C 15.289062 -76.679688 21.285156 -82.289062 28.921875 -86.34375 C 36.566406 -90.394531 45.179688 -92.421875 54.765625 -92.421875 C 64.335938 -92.421875 72.941406 -90.394531 80.578125 -86.34375 C 88.222656 -82.289062 94.222656 -76.679688 98.578125 -69.515625 C 102.929688 -62.347656 105.109375 -54.28125 105.109375 -45.3125 C 105.109375 -36.332031 102.929688 -28.257812 98.578125 -21.09375 C 94.222656 -13.9375 88.222656 -8.328125 80.578125 -4.265625 C 72.941406 -0.210938 64.335938 1.8125 54.765625 1.8125 Z M 54.765625 -19.421875 C 59.335938 -19.421875 63.476562 -20.5 67.1875 -22.65625 C 70.894531 -24.8125 73.828125 -27.851562 75.984375 -31.78125 C 78.140625 -35.707031 79.21875 -40.21875 79.21875 -45.3125 C 79.21875 -50.40625 78.140625 -54.914062 75.984375 -58.84375 C 73.828125 -62.769531 70.894531 -65.8125 67.1875 -67.96875 C 63.476562 -70.125 59.335938 -71.203125 54.765625 -71.203125 C 50.179688 -71.203125 46.035156 -70.125 42.328125 -67.96875 C 38.617188 -65.8125 35.6875 -62.769531 33.53125 -58.84375 C 31.375 -54.914062 30.296875 -50.40625 30.296875 -45.3125 C 30.296875 -40.21875 31.375 -35.707031 33.53125 -31.78125 C 35.6875 -27.851562 38.617188 -24.8125 42.328125 -22.65625 C 46.035156 -20.5 50.179688 -19.421875 54.765625 -19.421875 Z M 54.765625 -19.421875 "/></g></g></g><g fill="#f3f3f3" fill-opacity="1"><g transform="translate(761.449502, 308.038272)"><g><path d="M 90.875 0 L 90.625 -48.03125 L 67.3125 -8.9375 L 55.921875 -8.9375 L 32.75 -46.734375 L 32.75 0 L 9.0625 0 L 9.0625 -90.625 L 30.15625 -90.625 L 62.015625 -38.3125 L 93.078125 -90.625 L 114.171875 -90.625 L 114.4375 0 Z M 90.875 0 "/></g></g></g><g fill="#f3f3f3" fill-opacity="1"><g transform="translate(925.085163, 308.038272)"><g><path d="M 81.8125 -19.8125 L 81.8125 0 L 9.0625 0 L 9.0625 -90.625 L 80.125 -90.625 L 80.125 -70.8125 L 34.4375 -70.8125 L 34.4375 -55.53125 L 74.6875 -55.53125 L 74.6875 -36.375 L 34.4375 -36.375 L 34.4375 -19.8125 Z M 81.8125 -19.8125 "/></g></g></g><g clip-path="url(#f17c793862)"><path fill="#e5574c" d="M 1021.699219 203.84375 L 1014.066406 195.15625 L 1029.328125 195.15625 Z M 1021.699219 203.84375 " fill-opacity="1" fill-rule="nonzero"/></g><g clip-path="url(#1838c39747)"><path fill="#ff5f4a" d="M 1077.558594 164.90625 L 965.835938 164.90625 C 961.816406 164.90625 958.558594 168.125 958.558594 172.097656 L 958.558594 188.730469 C 958.558594 192.703125 961.816406 195.925781 965.835938 195.925781 L 1077.558594 195.925781 C 1081.578125 195.925781 1084.835938 192.703125 1084.835938 188.730469 L 1084.835938 172.097656 C 1084.835938 168.125 1081.578125 164.90625 1077.558594 164.90625 " fill-opacity="1" fill-rule="nonzero"/></g><path fill="#ffffff" d="M 974.648438 175.777344 C 971.175781 172.96875 967.726562 176.078125 968.097656 178.878906 C 968.636719 182.925781 974.648438 186.15625 974.648438 186.15625 C 974.648438 186.15625 980.664062 182.925781 981.199219 178.878906 C 981.574219 176.078125 978.121094 172.96875 974.648438 175.777344 " fill-opacity="1" fill-rule="nonzero"/><path fill="#ffffff" d="M 986.957031 176.804688 C 986.9375 176.832031 986.644531 176.898438 986.082031 177 C 985.523438 177.105469 985.136719 177.179688 984.925781 177.214844 L 984.925781 176.0625 C 986.097656 175.785156 986.898438 175.367188 987.328125 174.808594 L 988.496094 174.808594 L 988.496094 186.347656 L 986.957031 186.347656 L 986.957031 176.804688 " fill-opacity="1" fill-rule="nonzero"/><path fill="#ffffff" d="M 994.417969 181.875 L 994.417969 176.746094 L 992.617188 181.875 Z M 994.417969 183.3125 L 991.0625 183.3125 L 991.0625 181.617188 L 994.058594 174.808594 L 995.976562 174.808594 L 995.976562 181.875 L 997.269531 181.875 L 997.269531 183.3125 L 995.976562 183.3125 L 995.976562 186.347656 L 994.417969 186.347656 L 994.417969 183.3125 " fill-opacity="1" fill-rule="nonzero"/><path fill="#ffffff" d="M 998.148438 185.265625 L 1001.117188 180.691406 C 1001.261719 180.464844 1001.359375 180.320312 1001.40625 180.265625 C 1001.742188 179.734375 1001.988281 179.289062 1002.140625 178.9375 C 1002.292969 178.589844 1002.371094 178.164062 1002.371094 177.671875 C 1002.371094 177.121094 1002.277344 176.699219 1002.097656 176.402344 C 1001.914062 176.109375 1001.617188 175.960938 1001.203125 175.960938 C 1000.28125 175.960938 999.820312 176.671875 999.820312 178.085938 L 999.820312 178.46875 L 998.28125 178.46875 L 998.28125 178.070312 C 998.28125 176.988281 998.503906 176.15625 998.957031 175.578125 C 999.410156 175 1000.132812 174.707031 1001.132812 174.707031 C 1002.054688 174.707031 1002.75 174.96875 1003.222656 175.484375 C 1003.691406 176.003906 1003.925781 176.734375 1003.925781 177.683594 C 1003.925781 178.152344 1003.871094 178.566406 1003.761719 178.933594 C 1003.652344 179.296875 1003.519531 179.613281 1003.367188 179.878906 C 1003.210938 180.144531 1002.972656 180.527344 1002.644531 181.019531 L 999.964844 185.066406 L 1003.652344 185.066406 L 1003.652344 186.347656 L 998.148438 186.347656 L 998.148438 185.265625 " fill-opacity="1" fill-rule="nonzero"/><path fill="#ffffff" d="M 1027.433594 185.699219 C 1026.949219 185.183594 1026.707031 184.453125 1026.707031 183.511719 L 1026.707031 183.128906 L 1028.234375 183.128906 L 1028.234375 183.382812 C 1028.253906 183.972656 1028.359375 184.425781 1028.542969 184.738281 C 1028.730469 185.050781 1029.070312 185.207031 1029.558594 185.207031 C 1030.078125 185.207031 1030.433594 185.03125 1030.617188 184.675781 C 1030.804688 184.316406 1030.898438 183.789062 1030.898438 183.085938 C 1030.898438 182.4375 1030.78125 181.933594 1030.539062 181.570312 C 1030.300781 181.203125 1029.910156 181 1029.371094 180.964844 C 1029.335938 180.953125 1029.261719 180.949219 1029.15625 180.949219 L 1029.15625 179.421875 L 1029.359375 179.421875 C 1029.90625 179.40625 1030.300781 179.261719 1030.539062 178.996094 C 1030.78125 178.730469 1030.898438 178.289062 1030.898438 177.671875 C 1030.898438 177.101562 1030.804688 176.671875 1030.613281 176.382812 C 1030.417969 176.09375 1030.074219 175.949219 1029.574219 175.949219 C 1029.074219 175.949219 1028.730469 176.105469 1028.542969 176.417969 C 1028.359375 176.730469 1028.253906 177.191406 1028.234375 177.800781 L 1028.234375 178.042969 L 1026.707031 178.042969 L 1026.707031 177.65625 C 1026.707031 176.71875 1026.949219 175.992188 1027.433594 175.476562 C 1027.921875 174.964844 1028.632812 174.707031 1029.574219 174.707031 C 1030.515625 174.707031 1031.226562 174.96875 1031.714844 175.484375 C 1032.199219 176.003906 1032.441406 176.730469 1032.441406 177.671875 C 1032.441406 178.347656 1032.292969 178.894531 1031.996094 179.324219 C 1031.695312 179.753906 1031.289062 180.042969 1030.769531 180.191406 C 1031.296875 180.355469 1031.710938 180.683594 1032 181.175781 C 1032.292969 181.671875 1032.441406 182.304688 1032.441406 183.085938 C 1032.441406 184.160156 1032.207031 184.992188 1031.742188 185.585938 C 1031.277344 186.179688 1030.550781 186.476562 1029.558594 186.476562 C 1028.628906 186.476562 1027.921875 186.21875 1027.433594 185.699219 " fill-opacity="1" fill-rule="nonzero"/><path fill="#ffffff" d="M 1036.375 176.003906 L 1033.25 176.003906 L 1033.25 174.808594 L 1037.917969 174.808594 L 1037.917969 175.550781 L 1035.753906 186.347656 L 1034.269531 186.347656 L 1036.375 176.003906 " fill-opacity="1" fill-rule="nonzero"/><path fill="#ffffff" d="M 1024.230469 179.46875 C 1024.230469 176.820312 1021.515625 174.671875 1018.167969 174.671875 C 1014.820312 174.671875 1012.105469 176.820312 1012.105469 179.46875 C 1012.105469 182.121094 1014.820312 184.265625 1018.167969 184.265625 C 1018.304688 184.265625 1018.441406 184.261719 1018.578125 184.253906 L 1021.929688 186.347656 L 1021.625 183.410156 C 1023.199219 182.542969 1024.230469 181.101562 1024.230469 179.46875 " fill-opacity="1" fill-rule="nonzero"/><path fill="#ffffff" d="M 1062.113281 186.019531 L 1065.078125 181.449219 C 1065.222656 181.222656 1065.320312 181.078125 1065.367188 181.019531 C 1065.703125 180.488281 1065.949219 180.046875 1066.105469 179.695312 C 1066.257812 179.34375 1066.332031 178.921875 1066.332031 178.429688 C 1066.332031 177.878906 1066.242188 177.457031 1066.058594 177.160156 C 1065.878906 176.867188 1065.578125 176.71875 1065.167969 176.71875 C 1064.246094 176.71875 1063.785156 177.425781 1063.785156 178.84375 L 1063.785156 179.226562 L 1062.242188 179.226562 L 1062.242188 178.828125 C 1062.242188 177.746094 1062.46875 176.914062 1062.917969 176.335938 C 1063.371094 175.753906 1064.09375 175.464844 1065.09375 175.464844 C 1066.015625 175.464844 1066.714844 175.722656 1067.183594 176.242188 C 1067.65625 176.761719 1067.890625 177.492188 1067.890625 178.441406 C 1067.890625 178.910156 1067.835938 179.324219 1067.726562 179.6875 C 1067.613281 180.054688 1067.480469 180.371094 1067.328125 180.636719 C 1067.171875 180.902344 1066.933594 181.28125 1066.609375 181.777344 L 1063.929688 185.824219 L 1067.617188 185.824219 L 1067.617188 187.105469 L 1062.113281 187.105469 L 1062.113281 186.019531 " fill-opacity="1" fill-rule="nonzero"/><path fill="#ffffff" d="M 1071.921875 176.761719 L 1068.796875 176.761719 L 1068.796875 175.566406 L 1073.464844 175.566406 L 1073.464844 176.304688 L 1071.304688 187.105469 L 1069.820312 187.105469 L 1071.921875 176.761719 " fill-opacity="1" fill-rule="nonzero"/><path fill="#ffffff" d="M 1058.195312 187.105469 C 1058.878906 187.105469 1059.429688 186.558594 1059.429688 185.882812 L 1059.429688 185.0625 C 1059.425781 184.210938 1059.34375 182.757812 1058.609375 182.085938 C 1057.8125 181.375 1056.503906 181.09375 1055.558594 180.792969 C 1055.316406 180.988281 1055.050781 181.144531 1054.765625 181.265625 C 1054.351562 181.4375 1053.914062 181.523438 1053.464844 181.523438 C 1053.015625 181.523438 1052.574219 181.4375 1052.164062 181.265625 C 1051.878906 181.144531 1051.613281 180.988281 1051.371094 180.792969 C 1050.425781 181.09375 1049.117188 181.375 1048.316406 182.085938 C 1047.585938 182.757812 1047.503906 184.210938 1047.496094 185.0625 L 1047.496094 185.882812 C 1047.496094 186.558594 1048.050781 187.105469 1048.734375 187.105469 L 1058.195312 187.105469 " fill-opacity="1" fill-rule="nonzero"/><path fill="#ffffff" d="M 1053.464844 175.429688 C 1052.027344 175.429688 1050.863281 176.582031 1050.863281 178 C 1050.863281 179.039062 1051.488281 179.933594 1052.382812 180.339844 C 1052.710938 180.488281 1053.078125 180.570312 1053.464844 180.570312 C 1053.851562 180.570312 1054.21875 180.488281 1054.546875 180.339844 C 1055.441406 179.933594 1056.0625 179.039062 1056.0625 178 C 1056.0625 176.582031 1054.898438 175.429688 1053.464844 175.429688 " fill-opacity="1" fill-rule="nonzero"/></svg>